<svg xmlns="http://www.w3.org/2000/svg" xmlns:xlink="http://www.w3.org/1999/xlink" width="2000" zoomAndPan="magnify" viewBox="0 0 1500 1499.999933" height="2000" preserveAspectRatio="xMidYMid meet" version="1.0"><defs><clipPath id="dfc88ceb9d"><path d="M 132.046875 353.386719 L 1368.042969 353.386719 L 1368.042969 1146.886719 L 132.046875 1146.886719 Z M 132.046875 353.386719 " clip-rule="nonzero"/></clipPath><clipPath id="fae525946c"><path d="M 132.046875 353.386719 L 545 353.386719 L 545 1146.886719 L 132.046875 1146.886719 Z M 132.046875 353.386719 " clip-rule="nonzero"/></clipPath><clipPath id="c43ba293c7"><path d="M 544 353.386719 L 957 353.386719 L 957 1146.886719 L 544 1146.886719 Z M 544 353.386719 " clip-rule="nonzero"/></clipPath></defs><g clip-path="url(#dfc88ceb9d)"><path fill="#e72533" d="M 132.046875 353.605469 L 1368.046875 353.605469 L 1368.046875 1146.664062 L 132.046875 1146.664062 Z M 132.046875 353.605469 " fill-opacity="1" fill-rule="evenodd"/></g><g clip-path="url(#fae525946c)"><path fill="#000000" d="M 132.046875 353.605469 L 544.027344 353.605469 L 544.027344 1146.664062 L 132.046875 1146.664062 Z M 132.046875 353.605469 " fill-opacity="1" fill-rule="evenodd"/></g><g clip-path="url(#c43ba293c7)"><path fill="#f7dd3e" d="M 544.027344 353.605469 L 956.0625 353.605469 L 956.0625 1146.664062 L 544.027344 1146.664062 Z M 544.027344 353.605469 " fill-opacity="1" fill-rule="evenodd"/></g></svg>