<svg xmlns="http://www.w3.org/2000/svg" xmlns:xlink="http://www.w3.org/1999/xlink" width="2000" zoomAndPan="magnify" viewBox="0 0 1500 1499.999933" height="2000" preserveAspectRatio="xMidYMid meet" version="1.0"><defs><clipPath id="dbe6d91900"><path d="M 113.035156 260.191406 L 1387.28125 260.191406 L 1387.28125 1151.9375 L 113.035156 1151.9375 Z M 113.035156 260.191406 " clip-rule="nonzero"/></clipPath><clipPath id="1f6a80c4b1"><path d="M 113.035156 343 L 1387.28125 343 L 1387.28125 1072 L 113.035156 1072 Z M 113.035156 343 " clip-rule="nonzero"/></clipPath><clipPath id="652754e95e"><path d="M 503.671875 996.015625 L 728.671875 996.015625 L 728.671875 1046.089844 L 503.671875 1046.089844 Z M 503.671875 996.015625 " clip-rule="nonzero"/></clipPath><clipPath id="1d457e97e6"><path d="M 0.671875 0.015625 L 225.671875 0.015625 L 225.671875 50.089844 L 0.671875 50.089844 Z M 0.671875 0.015625 " clip-rule="nonzero"/></clipPath><clipPath id="b49a5fddcc"><rect x="0" width="226" y="0" height="51"/></clipPath></defs><g clip-path="url(#dbe6d91900)"><path fill="#ffffff" d="M 113.035156 260.191406 L 1387.28125 260.191406 L 1387.28125 1151.941406 L 113.035156 1151.941406 Z M 113.035156 260.191406 " fill-opacity="1" fill-rule="evenodd"/></g><g clip-path="url(#1f6a80c4b1)"><path fill="#0038b8" d="M 1387.28125 460.832031 L 113.035156 460.832031 L 113.035156 343.796875 L 1387.28125 343.796875 Z M 1387.28125 1071.300781 L 113.035156 1071.300781 L 113.035156 954.25 L 1387.28125 954.25 Z M 545.792969 592.328125 L 737.605469 926.035156 L 933.597656 593.894531 L 545.78125 592.328125 Z M 545.792969 592.328125 " fill-opacity="1" fill-rule="evenodd"/></g><path fill="#ffffff" d="M 701.558594 813.699219 L 737.964844 875.535156 L 775.25 814.054688 L 701.558594 813.710938 Z M 701.558594 813.699219 " fill-opacity="1" fill-rule="evenodd"/><path fill="#0038b8" d="M 545.105469 818.578125 L 737.085938 484.871094 L 932.898438 817.1875 L 545.09375 818.578125 Z M 545.105469 818.578125 " fill-opacity="1" fill-rule="evenodd"/><path fill="#ffffff" d="M 701.558594 593.894531 L 737.964844 532.058594 L 775.25 593.714844 Z M 625.242188 732.359375 L 587.4375 795.0625 L 658.859375 794.882812 L 625.230469 732.179688 L 625.230469 732.359375 Z M 588.136719 616.546875 L 659.917969 617.066406 L 625.421875 680.292969 Z M 851.550781 733.238281 L 887.957031 795.074219 L 815.308594 794.207031 L 851.550781 733.25 Z M 887.265625 616.546875 L 815.488281 617.066406 L 849.984375 680.292969 Z M 688.140625 616.546875 L 638.660156 706.066406 L 688.839844 793.671875 L 780.828125 795.761719 L 836.578125 706.066406 L 785.007812 615.5 Z M 688.140625 616.546875 " fill-opacity="1" fill-rule="evenodd"/><g clip-path="url(#652754e95e)"><g transform="matrix(1, 0, 0, 1, 503, 996)"><g clip-path="url(#b49a5fddcc)"><g clip-path="url(#1d457e97e6)"><path fill="#0038b8" d="M 0.671875 0.015625 L 225.625 0.015625 L 225.625 50.089844 L 0.671875 50.089844 Z M 0.671875 0.015625 " fill-opacity="1" fill-rule="nonzero"/></g></g></g></g></svg>