<svg xmlns="http://www.w3.org/2000/svg" xmlns:xlink="http://www.w3.org/1999/xlink" width="2000" zoomAndPan="magnify" viewBox="0 0 1500 1499.999933" height="2000" preserveAspectRatio="xMidYMid meet" version="1.0"><defs><clipPath id="f5cb10aead"><path d="M 73.496094 327.183594 L 1426.496094 327.183594 L 1426.496094 1173.183594 L 73.496094 1173.183594 Z M 73.496094 327.183594 " clip-rule="nonzero"/></clipPath><clipPath id="092989333a"><path d="M 494 327.183594 L 666 327.183594 L 666 1173.183594 L 494 1173.183594 Z M 494 327.183594 " clip-rule="nonzero"/></clipPath><clipPath id="3694af4e4e"><path d="M 73.496094 664 L 1426.496094 664 L 1426.496094 836 L 73.496094 836 Z M 73.496094 664 " clip-rule="nonzero"/></clipPath><clipPath id="871c54539a"><path d="M 788.441406 327.183594 L 1238.582031 327.183594 L 1238.582031 624.183594 L 788.441406 624.183594 Z M 788.441406 327.183594 " clip-rule="nonzero"/></clipPath><clipPath id="bb6abefa5d"><path d="M 823.691406 327.183594 L 1203.191406 327.183594 C 1222.660156 327.183594 1238.441406 342.96875 1238.441406 362.433594 L 1238.441406 588.933594 C 1238.441406 608.402344 1222.660156 624.183594 1203.191406 624.183594 L 823.691406 624.183594 C 804.222656 624.183594 788.441406 608.402344 788.441406 588.933594 L 788.441406 362.433594 C 788.441406 342.96875 804.222656 327.183594 823.691406 327.183594 Z M 823.691406 327.183594 " clip-rule="nonzero"/></clipPath><clipPath id="61f5c8f59f"><path d="M 0.441406 0.183594 L 450.582031 0.183594 L 450.582031 297.183594 L 0.441406 297.183594 Z M 0.441406 0.183594 " clip-rule="nonzero"/></clipPath><clipPath id="54ea94dfaa"><path d="M 35.691406 0.183594 L 415.191406 0.183594 C 434.660156 0.183594 450.441406 15.96875 450.441406 35.433594 L 450.441406 261.933594 C 450.441406 281.402344 434.660156 297.183594 415.191406 297.183594 L 35.691406 297.183594 C 16.222656 297.183594 0.441406 281.402344 0.441406 261.933594 L 0.441406 35.433594 C 0.441406 15.96875 16.222656 0.183594 35.691406 0.183594 Z M 35.691406 0.183594 " clip-rule="nonzero"/></clipPath><clipPath id="edf2553c46"><rect x="0" width="451" y="0" height="298"/></clipPath></defs><g clip-path="url(#f5cb10aead)"><path fill="#005293" d="M 73.496094 327.183594 L 1426.496094 327.183594 L 1426.496094 1173.183594 L 73.496094 1173.183594 Z M 73.496094 327.183594 " fill-opacity="1" fill-rule="nonzero"/></g><g clip-path="url(#092989333a)"><path fill="#fecb00" d="M 494.949219 327.183594 L 665.351562 327.183594 L 665.351562 1173.183594 L 494.949219 1173.183594 Z M 494.949219 327.183594 " fill-opacity="1" fill-rule="nonzero"/></g><g clip-path="url(#3694af4e4e)"><path fill="#fecb00" d="M 73.496094 664.945312 L 1426.496094 664.945312 L 1426.496094 835.425781 L 73.496094 835.425781 Z M 73.496094 664.945312 " fill-opacity="1" fill-rule="nonzero"/></g><g clip-path="url(#871c54539a)"><g clip-path="url(#bb6abefa5d)"><g transform="matrix(1, 0, 0, 1, 788, 327)"><g clip-path="url(#edf2553c46)"><g clip-path="url(#61f5c8f59f)"><g clip-path="url(#54ea94dfaa)"><path fill="#005293" d="M 0.441406 0.183594 L 450.582031 0.183594 L 450.582031 297.183594 L 0.441406 297.183594 Z M 0.441406 0.183594 " fill-opacity="1" fill-rule="nonzero"/></g></g></g></g></g></g></svg>